<svg width="1097" height="545" viewBox="0 0 1097 545" fill="none" xmlns="http://www.w3.org/2000/svg">
<g filter="url(#filter0_d)">
<rect x="40" y="30" width="1037" height="485" rx="242.5" fill="url(#paint0_linear)"/>
</g>
<rect x="92" y="52" width="933" height="441" rx="218.5" fill="url(#paint1_linear)"/>
<g filter="url(#filter1_i)">
<rect x="103" y="66" width="912" height="416" rx="208" fill="url(#paint2_linear)"/>
</g>
<rect x="153" y="103" width="809" height="342" rx="171" stroke="#6297B5" stroke-width="2"/>
<g opacity="0.5" clip-path="url(#clip0)">
<path fill-rule="evenodd" clip-rule="evenodd" d="M411.982 346.903L407.978 350.771C405.75 352.925 403.934 354.759 403.934 354.879C403.934 354.998 407.607 355.038 412.065 354.959L420.196 354.839L411.982 346.903ZM411.941 350.093L409.134 352.885H411.899C413.427 352.885 414.665 352.845 414.665 352.765C414.665 352.685 414.046 352.087 413.303 351.369L411.941 350.093Z" fill="#6297B5"/>
<path d="M411.982 330.951L407.442 335.338C403.108 339.525 402.365 340.044 401.746 339.446C400.962 338.728 401.87 337.492 406.74 332.826L411.982 327.761L417.513 333.105C422.301 337.731 423.002 338.568 422.548 339.087C422.218 339.446 421.764 339.725 421.516 339.725C421.269 339.725 418.999 337.731 416.522 335.338L411.982 330.951Z" fill="#6297B5"/>
<path fill-rule="evenodd" clip-rule="evenodd" d="M404.883 343.673C405.378 343.434 407.194 341.918 408.886 340.283L411.982 337.332L414.871 340.163C418.173 343.394 419.37 344.111 421.475 344.111C425.148 344.111 427.914 340.921 427.253 337.412C427.006 336.176 425.726 334.74 419.494 328.639L411.982 321.381L405.048 328.04C401.209 331.749 397.825 335.219 397.495 335.817C396.752 337.212 396.752 339.844 397.536 341.36C398.816 343.673 402.489 344.829 404.883 343.673ZM399.187 337.731C398.816 339.326 399.641 340.881 401.086 341.479C401.787 341.759 402.778 341.918 403.273 341.838C403.81 341.719 405.956 339.964 408.102 337.89L411.941 334.142L415.944 337.93C419.7 341.519 420.361 341.918 422.301 341.759C423.539 341.639 424.983 339.884 424.983 338.449C424.983 337.372 424.075 336.335 418.503 330.872L412.023 324.571L405.708 330.632C401.829 334.341 399.311 337.093 399.187 337.731Z" fill="#6297B5"/>
<path fill-rule="evenodd" clip-rule="evenodd" d="M406.947 347.701C407.937 347.262 409.464 346.185 410.331 345.308L411.899 343.753L413.716 345.348C414.706 346.225 416.316 347.302 417.265 347.74C419.329 348.618 423.58 348.737 425.561 347.94C429.235 346.464 432 342.437 432 338.528C432 334.62 430.968 333.264 420.98 323.654L411.941 315L402.613 324.052C393.945 332.507 393.243 333.304 392.624 335.298C391.799 337.97 391.799 339.047 392.583 341.559C393.863 345.747 397.825 348.498 402.571 348.498C404.346 348.498 405.75 348.219 406.947 347.701ZM400.012 346.026C395.39 344.47 393.161 339.326 395.266 335.179C395.761 334.182 399.27 330.433 404.057 325.847L412.023 318.19L420.526 326.445C428.45 334.222 429.028 334.86 429.441 336.694C430.349 340.881 427.831 345.029 423.704 346.105C420.361 346.983 417.637 346.026 414.252 342.716L412.023 340.522L409.299 343.075C405.832 346.305 403.273 347.142 400.012 346.026Z" fill="#6297B5"/>
<path d="M458.531 325.719C458.958 325.719 459.172 325.943 459.172 326.391C459.172 326.62 459.099 326.885 458.953 327.188C458.818 327.479 458.708 327.719 458.625 327.906L450.141 348.859L439.859 325.891H448.391L453.359 337.578L456.844 328.859C457.219 327.922 457.464 327.245 457.578 326.828C457.693 326.411 457.818 326.125 457.953 325.969C458.089 325.802 458.281 325.719 458.531 325.719ZM462.188 325.891H470.156V348H462.188V325.891ZM476.828 345.766L476.875 347.328C476.875 347.599 476.802 347.807 476.656 347.953C476.51 348.099 476.333 348.172 476.125 348.172C475.927 348.172 475.76 348.104 475.625 347.969C475.49 347.833 475.422 347.688 475.422 347.531C475.422 347.365 475.432 347.214 475.453 347.078C475.484 346.932 475.51 346.771 475.531 346.594C475.583 346.292 475.609 345.536 475.609 344.328V324.891L492.594 338.359V329.047C492.594 328.339 492.573 327.833 492.531 327.531C492.479 327.042 492.453 326.698 492.453 326.5C492.453 325.979 492.677 325.719 493.125 325.719C493.302 325.719 493.469 325.781 493.625 325.906C493.792 326.031 493.875 326.214 493.875 326.453V327L493.812 329.266V348.859L476.828 335.531V345.766ZM515.469 326.297C515.469 326.776 514.964 327.016 513.953 327.016H510.328V348H502.328V327.016H499.984C499.182 327.016 498.63 327.052 498.328 327.125C497.932 327.208 497.646 327.25 497.469 327.25C496.938 327.25 496.672 327.042 496.672 326.625C496.672 326.135 497.188 325.891 498.219 325.891H512.156C512.875 325.891 513.406 325.859 513.75 325.797C514.167 325.724 514.479 325.688 514.688 325.688C515.208 325.688 515.469 325.891 515.469 326.297ZM522.703 345.219C520.797 345.219 519.495 345.203 518.797 345.172L518.344 346.25C518.208 346.552 518.083 346.87 517.969 347.203C517.729 347.849 517.396 348.172 516.969 348.172C516.771 348.172 516.609 348.109 516.484 347.984C516.359 347.859 516.297 347.729 516.297 347.594C516.297 347.365 516.396 347.109 516.594 346.828C516.906 346.391 517.214 345.818 517.516 345.109C516.62 345.026 516.172 344.766 516.172 344.328C516.172 343.891 516.427 343.672 516.938 343.672C517.25 343.672 517.615 343.724 518.031 343.828L525.828 324.891L536.516 348H528.375L527.078 345.219H522.703ZM519.297 343.953C520.297 344.036 521.193 344.078 521.984 344.078H526.562L522.656 335.656L519.297 343.953ZM558.531 346.859L558.562 345.781V343.312C557.094 345.76 554.927 347.318 552.062 347.984C551.156 348.193 550.099 348.297 548.891 348.297C547.693 348.297 546.448 348.047 545.156 347.547C543.875 347.047 542.75 346.323 541.781 345.375C539.656 343.312 538.594 340.599 538.594 337.234C538.594 334.016 539.719 331.292 541.969 329.062C544.312 326.76 547.255 325.609 550.797 325.609C552.589 325.609 554.208 325.943 555.656 326.609C556.542 327.005 557.167 327.375 557.531 327.719C557.896 328.052 558.078 328.323 558.078 328.531C558.078 328.729 558.016 328.901 557.891 329.047C557.766 329.193 557.589 329.266 557.359 329.266C557.141 329.266 556.896 329.146 556.625 328.906C555.823 328.198 555.115 327.734 554.5 327.516C553.896 327.297 553.411 327.141 553.047 327.047C552.682 326.953 552.354 326.885 552.062 326.844C551.615 326.781 551.083 326.75 550.469 326.75C549.854 326.75 549.286 326.802 548.766 326.906V347.125C548.88 347.135 548.995 347.141 549.109 347.141H549.422C552.516 347.141 555.021 345.969 556.938 343.625C557.594 342.823 558.135 341.875 558.562 340.781V339.281C558.562 339.281 558.536 338.812 558.484 337.875C558.484 337.323 558.703 337.047 559.141 337.047C559.37 337.047 559.547 337.125 559.672 337.281C559.797 337.427 559.859 337.609 559.859 337.828L559.766 339.125V344.938L559.859 347.359C559.859 347.609 559.786 347.807 559.641 347.953C559.505 348.099 559.344 348.172 559.156 348.172C558.698 348.172 558.469 347.932 558.469 347.453C558.469 347.328 558.49 347.13 558.531 346.859ZM579 346.656C579.531 346.656 579.797 346.865 579.797 347.281C579.797 347.469 579.682 347.635 579.453 347.781C579.224 347.927 578.828 348 578.266 348H565.031V325.891C569.135 325.891 573.24 325.891 577.344 325.891L578.625 325.844C579.406 325.844 579.797 326.073 579.797 326.531C579.797 326.708 579.729 326.875 579.594 327.031C579.469 327.177 579.323 327.25 579.156 327.25C578.885 327.25 578.599 327.219 578.297 327.156C577.849 327.062 577.234 327.016 576.453 327.016H573V331.781H575.844C575.844 331.781 576.484 331.755 577.766 331.703C577.995 331.703 578.188 331.76 578.344 331.875C578.51 331.979 578.594 332.13 578.594 332.328C578.594 332.766 578.302 332.984 577.719 332.984L577.047 332.969C576.703 332.938 576.417 332.922 576.188 332.922H573V346.859H576.453C577.224 346.859 577.771 346.828 578.094 346.766C578.479 346.693 578.781 346.656 579 346.656ZM601.453 341.516L602.844 341.578C604.865 341.578 606.531 340.911 607.844 339.578C609.177 338.234 609.875 336.495 609.938 334.359C610.052 331.068 608.469 328.844 605.188 327.688C603.958 327.25 602.359 327.031 600.391 327.031H599.078V348H591.109V325.891H597.094C600.323 325.891 602.271 325.938 602.938 326.031C603.604 326.125 604.297 326.245 605.016 326.391C605.745 326.536 606.526 326.854 607.359 327.344C608.203 327.833 608.917 328.417 609.5 329.094C610.677 330.469 611.245 332.083 611.203 333.938C611.141 336.302 610.448 338.271 609.125 339.844C607.781 341.427 605.927 342.406 603.562 342.781C602.875 342.875 602.333 342.922 601.938 342.922C601 342.922 600.531 342.667 600.531 342.156C600.531 341.969 600.615 341.818 600.781 341.703C600.948 341.578 601.172 341.516 601.453 341.516ZM617.141 345.188C616.109 344.177 615.286 342.958 614.672 341.531C614.068 340.094 613.766 338.531 613.766 336.844C613.766 335.146 614.052 333.625 614.625 332.281C615.208 330.927 616.01 329.755 617.031 328.766C619.219 326.661 621.964 325.609 625.266 325.609C628.547 325.609 631.234 326.646 633.328 328.719C635.453 330.823 636.516 333.552 636.516 336.906C636.516 340.25 635.427 343 633.25 345.156C631.885 346.49 630.208 347.411 628.219 347.922C627.229 348.172 626.078 348.297 624.766 348.297C623.464 348.297 622.125 348.031 620.75 347.5C619.375 346.958 618.172 346.188 617.141 345.188ZM625.25 326.75C624.677 326.75 624.141 326.792 623.641 326.875V347.031C624.12 347.115 624.656 347.156 625.25 347.156C628.031 347.156 630.375 346.229 632.281 344.375C634.271 342.448 635.266 339.958 635.266 336.906C635.266 334 634.333 331.583 632.469 329.656C630.583 327.719 628.177 326.75 625.25 326.75ZM640.984 325.891H648.953V332.359L654.516 328.156C655.297 327.562 655.865 327.078 656.219 326.703C656.573 326.328 656.792 326.104 656.875 326.031C656.969 325.948 657.052 325.885 657.125 325.844C657.25 325.76 657.406 325.719 657.594 325.719C657.792 325.719 657.948 325.776 658.062 325.891C658.177 325.995 658.234 326.115 658.234 326.25C658.234 326.375 658.219 326.484 658.188 326.578C658.156 326.661 658.094 326.76 658 326.875C657.792 327.125 657.396 327.474 656.812 327.922L653.312 330.578L659.172 344.906C659.286 345.177 659.396 345.417 659.5 345.625L659.75 346.188L660.031 346.719C660.104 346.865 660.167 347.005 660.219 347.141C660.271 347.276 660.292 347.406 660.281 347.531C660.271 347.656 660.234 347.771 660.172 347.875C660.026 348.104 659.849 348.219 659.641 348.219C659.349 348.219 659.13 348.135 658.984 347.969C658.797 347.74 658.656 347.484 658.562 347.203L658.281 346.328C658.188 346.036 658.062 345.688 657.906 345.281L652.234 331.391L648.953 333.875V348H640.984V325.891ZM677.406 346.656C677.938 346.656 678.203 346.865 678.203 347.281C678.203 347.469 678.089 347.635 677.859 347.781C677.63 347.927 677.234 348 676.672 348H663.438V325.891C667.542 325.891 671.646 325.891 675.75 325.891L677.031 325.844C677.812 325.844 678.203 326.073 678.203 326.531C678.203 326.708 678.135 326.875 678 327.031C677.875 327.177 677.729 327.25 677.562 327.25C677.292 327.25 677.005 327.219 676.703 327.156C676.255 327.062 675.641 327.016 674.859 327.016H671.406V331.781H674.25C674.25 331.781 674.891 331.755 676.172 331.703C676.401 331.703 676.594 331.76 676.75 331.875C676.917 331.979 677 332.13 677 332.328C677 332.766 676.708 332.984 676.125 332.984L675.453 332.969C675.109 332.938 674.823 332.922 674.594 332.922H671.406V346.859H674.859C675.63 346.859 676.177 346.828 676.5 346.766C676.885 346.693 677.188 346.656 677.406 346.656ZM692.922 340.422L694.203 340.516C696.036 340.516 697.594 339.875 698.875 338.594C700.156 337.312 700.797 335.719 700.797 333.812C700.797 331.312 699.698 329.458 697.5 328.25C696.292 327.583 695 327.198 693.625 327.094C693.042 327.042 692.5 327.016 692 327.016H690.938C690.719 327.016 690.526 327.021 690.359 327.031V348H682.391V325.891C684.828 325.891 686.802 325.891 688.312 325.891C689.823 325.891 690.807 325.896 691.266 325.906C691.724 325.917 692.13 325.932 692.484 325.953C692.849 325.964 693.188 325.979 693.5 326C693.958 326.042 694.604 326.141 695.438 326.297C696.281 326.453 697.115 326.75 697.938 327.188C698.76 327.625 699.469 328.167 700.062 328.812C701.344 330.188 701.984 331.823 701.984 333.719C701.984 335.594 701.391 337.25 700.203 338.688C698.984 340.156 697.359 341.104 695.328 341.531C696.297 344.531 697.531 346.323 699.031 346.906C699.49 347.083 699.948 347.172 700.406 347.172L701.641 346.875C702.026 346.875 702.219 347.073 702.219 347.469C702.219 348.021 701.573 348.297 700.281 348.297C699.344 348.297 698.484 348.036 697.703 347.516C696.484 346.786 695.448 345.37 694.594 343.266L694.141 342.156C694.068 341.979 694 341.87 693.938 341.828C693.885 341.786 693.786 341.766 693.641 341.766C693.505 341.766 693.385 341.776 693.281 341.797L692.906 341.812C692.49 341.812 692.203 341.734 692.047 341.578C691.901 341.422 691.828 341.26 691.828 341.094C691.828 340.646 692.193 340.422 692.922 340.422Z" fill="#245069"/>
</g>
<defs>
<filter id="filter0_d" x="0" y="0" width="1097" height="545" filterUnits="userSpaceOnUse" color-interpolation-filters="sRGB">
<feFlood flood-opacity="0" result="BackgroundImageFix"/>
<feColorMatrix in="SourceAlpha" type="matrix" values="0 0 0 0 0 0 0 0 0 0 0 0 0 0 0 0 0 0 127 0"/>
<feOffset dx="-10"/>
<feGaussianBlur stdDeviation="15"/>
<feColorMatrix type="matrix" values="0 0 0 0 0 0 0 0 0 0 0 0 0 0 0 0 0 0 0.1 0"/>
<feBlend mode="normal" in2="BackgroundImageFix" result="effect1_dropShadow"/>
<feBlend mode="normal" in="SourceGraphic" in2="effect1_dropShadow" result="shape"/>
</filter>
<filter id="filter1_i" x="103" y="61" width="917" height="421" filterUnits="userSpaceOnUse" color-interpolation-filters="sRGB">
<feFlood flood-opacity="0" result="BackgroundImageFix"/>
<feBlend mode="normal" in="SourceGraphic" in2="BackgroundImageFix" result="shape"/>
<feColorMatrix in="SourceAlpha" type="matrix" values="0 0 0 0 0 0 0 0 0 0 0 0 0 0 0 0 0 0 127 0" result="hardAlpha"/>
<feOffset dx="5" dy="-5"/>
<feGaussianBlur stdDeviation="5"/>
<feComposite in2="hardAlpha" operator="arithmetic" k2="-1" k3="1"/>
<feColorMatrix type="matrix" values="0 0 0 0 0 0 0 0 0 0 0 0 0 0 0 0 0 0 0.3 0"/>
<feBlend mode="normal" in2="shape" result="effect1_innerShadow"/>
</filter>
<linearGradient id="paint0_linear" x1="929.227" y1="158.525" x2="310.527" y2="397.907" gradientUnits="userSpaceOnUse">
<stop stop-color="#245069"/>
<stop offset="1" stop-color="#6297B5"/>
</linearGradient>
<linearGradient id="paint1_linear" x1="-21.5" y1="501.5" x2="1158.5" y2="-13.9999" gradientUnits="userSpaceOnUse">
<stop stop-color="#B59162"/>
<stop offset="1" stop-color="#5B2D1D"/>
</linearGradient>
<linearGradient id="paint2_linear" x1="67.5" y1="482" x2="1026.5" y2="32.4999" gradientUnits="userSpaceOnUse">
<stop stop-color="#DCC291"/>
<stop offset="1" stop-color="#B59162"/>
</linearGradient>
<clipPath id="clip0">
<rect width="311" height="40" fill="white" transform="translate(392 315)"/>
</clipPath>
</defs>
</svg>
