<svg width="1097" height="545" viewBox="0 0 1097 545" fill="none" xmlns="http://www.w3.org/2000/svg">
<g clip-path="url(#clip0)">
<g filter="url(#filter0_d)">
<path d="M840.469 0H256.531C114.853 0 0 122.002 0 272.5C0 422.998 114.853 545 256.531 545H840.469C982.147 545 1097 422.998 1097 272.5C1097 122.002 982.147 0 840.469 0Z" fill="url(#paint0_linear)"/>
</g>
<path d="M810.322 24H286.678C159.278 24 56 134.248 56 270.246V274.754C56 410.752 159.278 521 286.678 521H810.322C937.722 521 1041 410.752 1041 274.754V270.246C1041 134.248 937.722 24 810.322 24Z" fill="url(#paint1_linear)"/>
<g filter="url(#filter1_i)">
<path d="M810.32 38.2062H285.622C164.1 38.2062 65.5873 142.852 65.5873 271.938C65.5873 401.025 164.1 505.67 285.622 505.67H810.32C931.842 505.67 1030.35 401.025 1030.35 271.938C1030.35 142.852 931.842 38.2062 810.32 38.2062Z" fill="url(#paint2_linear)"/>
</g>
<path d="M795.854 79H301.146C201.102 79 120 165.409 120 272C120 378.591 201.102 465 301.146 465H795.854C895.898 465 977 378.591 977 272C977 165.409 895.898 79 795.854 79Z" stroke="#6297B5" stroke-width="2"/>
<g opacity="0.5">
<path opacity="0.5" fill-rule="evenodd" clip-rule="evenodd" d="M405.141 353.437L400.905 357.784C398.548 360.204 396.627 362.265 396.627 362.4C396.627 362.534 400.513 362.579 405.229 362.49L413.83 362.355L405.141 353.437ZM405.098 357.022L402.128 360.159H405.053C406.67 360.159 407.979 360.114 407.979 360.025C407.979 359.935 407.324 359.263 406.538 358.456L405.098 357.022Z" fill="#6297B5"/>
<path opacity="0.5" d="M405.141 335.512L400.338 340.442C395.754 345.147 394.968 345.73 394.313 345.058C393.483 344.251 394.444 342.862 399.596 337.619L405.141 331.927L410.992 337.932C416.057 343.131 416.799 344.071 416.318 344.654C415.969 345.058 415.489 345.371 415.227 345.371C414.965 345.371 412.564 343.131 409.944 340.442L405.141 335.512Z" fill="#6297B5"/>
<path opacity="0.5" fill-rule="evenodd" clip-rule="evenodd" d="M397.631 349.808C398.155 349.539 400.076 347.836 401.866 345.998L405.141 342.682L408.197 345.864C411.69 349.494 412.956 350.3 415.183 350.3C419.069 350.3 421.995 346.715 421.296 342.772C421.034 341.383 419.68 339.77 413.088 332.914L405.141 324.758L397.806 332.241C393.745 336.409 390.165 340.308 389.816 340.98C389.03 342.547 389.03 345.505 389.859 347.209C391.213 349.808 395.099 351.107 397.631 349.808ZM391.606 343.131C391.213 344.923 392.086 346.67 393.615 347.342C394.356 347.657 395.404 347.836 395.928 347.746C396.496 347.612 398.766 345.64 401.037 343.309L405.098 339.098L409.332 343.354C413.306 347.387 414.005 347.836 416.057 347.657C417.367 347.522 418.894 345.55 418.894 343.938C418.894 342.727 417.934 341.562 412.039 335.423L405.184 328.343L398.504 335.153C394.401 339.321 391.737 342.414 391.606 343.131Z" fill="#6297B5"/>
<path opacity="0.5" fill-rule="evenodd" clip-rule="evenodd" d="M399.815 354.334C400.862 353.841 402.477 352.631 403.394 351.645L405.053 349.898L406.975 351.69C408.023 352.675 409.726 353.886 410.73 354.378C412.913 355.365 417.41 355.498 419.506 354.603C423.392 352.944 426.317 348.419 426.317 344.026C426.317 339.635 425.226 338.111 414.66 327.312L405.098 317.588L395.23 327.759C386.06 337.26 385.318 338.156 384.663 340.397C383.79 343.399 383.79 344.609 384.62 347.432C385.974 352.138 390.165 355.23 395.185 355.23C397.063 355.23 398.548 354.916 399.815 354.334ZM392.478 352.452C387.589 350.703 385.231 344.923 387.458 340.263C387.981 339.143 391.693 334.93 396.757 329.776L405.184 321.172L414.179 330.449C422.562 339.188 423.173 339.905 423.61 341.965C424.571 346.67 421.907 351.332 417.541 352.541C414.005 353.527 411.123 352.452 407.542 348.732L405.184 346.267L402.303 349.136C398.635 352.765 395.928 353.706 392.478 352.452Z" fill="#6297B5"/>
<path opacity="0.5" d="M454.383 329.633C454.835 329.633 455.061 329.884 455.061 330.388C455.061 330.645 454.984 330.943 454.83 331.283C454.687 331.61 454.571 331.88 454.483 332.09L445.508 355.635L434.631 329.826H443.657L448.912 342.959L452.599 333.161C452.995 332.108 453.255 331.347 453.375 330.879C453.497 330.41 453.629 330.089 453.772 329.914C453.916 329.726 454.119 329.633 454.383 329.633ZM458.252 329.826H466.681V354.67H458.252V329.826ZM473.739 352.16L473.789 353.915C473.789 354.219 473.711 354.453 473.557 354.617C473.403 354.781 473.215 354.863 472.995 354.863C472.786 354.863 472.609 354.787 472.466 354.635C472.324 354.482 472.252 354.32 472.252 354.143C472.252 353.957 472.262 353.787 472.284 353.634C472.317 353.47 472.345 353.289 472.367 353.09C472.422 352.751 472.449 351.901 472.449 350.544V328.702L490.417 343.836V333.372C490.417 332.577 490.395 332.008 490.351 331.669C490.295 331.119 490.268 330.733 490.268 330.51C490.268 329.925 490.505 329.633 490.979 329.633C491.166 329.633 491.343 329.702 491.508 329.843C491.684 329.983 491.772 330.189 491.772 330.457V331.072L491.706 333.618V355.635L473.739 340.659V352.16ZM514.616 330.282C514.616 330.82 514.081 331.09 513.012 331.09H509.177V354.67H500.714V331.09H498.235C497.386 331.09 496.802 331.131 496.483 331.213C496.064 331.306 495.761 331.353 495.574 331.353C495.012 331.353 494.731 331.119 494.731 330.651C494.731 330.1 495.277 329.826 496.368 329.826H511.111C511.872 329.826 512.433 329.79 512.797 329.72C513.238 329.638 513.568 329.598 513.789 329.598C514.34 329.598 514.616 329.826 514.616 330.282ZM522.268 351.545C520.252 351.545 518.875 351.527 518.136 351.492L517.657 352.704C517.513 353.043 517.381 353.4 517.26 353.775C517.006 354.5 516.654 354.863 516.202 354.863C515.993 354.863 515.822 354.793 515.689 354.652C515.557 354.512 515.492 354.366 515.492 354.214C515.492 353.957 515.596 353.669 515.806 353.353C516.136 352.862 516.462 352.218 516.781 351.421C515.833 351.328 515.359 351.036 515.359 350.544C515.359 350.053 515.629 349.807 516.17 349.807C516.5 349.807 516.886 349.865 517.326 349.982L525.574 328.702L536.88 354.67H528.268L526.896 351.545H522.268ZM518.665 350.122C519.723 350.216 520.671 350.263 521.508 350.263H526.351L522.219 340.799L518.665 350.122ZM560.169 353.388L560.202 352.177V349.402C558.649 352.153 556.357 353.904 553.326 354.652C552.368 354.887 551.249 355.004 549.971 355.004C548.704 355.004 547.387 354.723 546.02 354.161C544.665 353.599 543.475 352.786 542.45 351.72C540.202 349.402 539.079 346.354 539.079 342.572C539.079 338.956 540.269 335.895 542.649 333.389C545.128 330.802 548.241 329.509 551.988 329.509C553.883 329.509 555.596 329.884 557.128 330.633C558.065 331.078 558.726 331.494 559.111 331.88C559.497 332.254 559.69 332.559 559.69 332.793C559.69 333.015 559.624 333.208 559.492 333.372C559.36 333.536 559.173 333.618 558.929 333.618C558.699 333.618 558.44 333.484 558.153 333.214C557.305 332.418 556.556 331.897 555.905 331.652C555.266 331.406 554.753 331.231 554.368 331.125C553.982 331.019 553.635 330.943 553.326 330.897C552.853 330.826 552.29 330.791 551.641 330.791C550.99 330.791 550.389 330.85 549.839 330.967V353.687C549.96 353.698 550.081 353.705 550.202 353.705H550.533C553.806 353.705 556.456 352.388 558.484 349.754C559.178 348.853 559.75 347.787 560.202 346.558V344.872C560.202 344.872 560.175 344.345 560.119 343.293C560.119 342.672 560.351 342.362 560.814 342.362C561.057 342.362 561.244 342.45 561.376 342.625C561.508 342.789 561.574 342.994 561.574 343.24L561.476 344.697V351.229L561.574 353.95C561.574 354.231 561.497 354.453 561.343 354.617C561.2 354.781 561.029 354.863 560.83 354.863C560.346 354.863 560.104 354.594 560.104 354.055C560.104 353.915 560.126 353.692 560.169 353.388ZM581.823 353.16C582.384 353.16 582.666 353.395 582.666 353.862C582.666 354.073 582.544 354.26 582.302 354.424C582.059 354.588 581.641 354.67 581.046 354.67H567.045V329.826C571.387 329.826 575.729 329.826 580.071 329.826L581.426 329.773C582.252 329.773 582.666 330.03 582.666 330.545C582.666 330.744 582.594 330.932 582.451 331.107C582.319 331.271 582.164 331.353 581.988 331.353C581.701 331.353 581.398 331.318 581.079 331.247C580.605 331.142 579.954 331.09 579.128 331.09H575.475V336.445H578.484C578.484 336.445 579.161 336.415 580.517 336.357C580.759 336.357 580.964 336.421 581.129 336.55C581.304 336.667 581.393 336.837 581.393 337.059C581.393 337.551 581.084 337.796 580.467 337.796L579.757 337.78C579.393 337.745 579.09 337.727 578.848 337.727H575.475V353.388H579.128C579.944 353.388 580.522 353.353 580.864 353.283C581.271 353.201 581.591 353.16 581.823 353.16ZM605.575 347.384L607.046 347.454C609.184 347.454 610.946 346.704 612.335 345.206C613.746 343.696 614.484 341.742 614.551 339.342C614.671 335.643 612.997 333.144 609.526 331.845C608.225 331.353 606.533 331.107 604.451 331.107H603.062V354.67H594.632V329.826H600.963C604.379 329.826 606.44 329.879 607.146 329.983C607.85 330.089 608.583 330.224 609.344 330.388C610.115 330.551 610.941 330.908 611.822 331.459C612.715 332.008 613.47 332.664 614.087 333.425C615.332 334.97 615.933 336.784 615.889 338.868C615.823 341.525 615.09 343.738 613.691 345.505C612.269 347.284 610.308 348.384 607.806 348.805C607.079 348.911 606.506 348.964 606.088 348.964C605.095 348.964 604.599 348.677 604.599 348.103C604.599 347.893 604.688 347.723 604.864 347.594C605.04 347.454 605.277 347.384 605.575 347.384ZM622.17 351.51C621.079 350.374 620.208 349.004 619.558 347.401C618.92 345.786 618.6 344.03 618.6 342.134C618.6 340.226 618.903 338.517 619.509 337.006C620.125 335.485 620.974 334.168 622.054 333.057C624.369 330.691 627.272 329.509 630.765 329.509C634.236 329.509 637.079 330.674 639.294 333.004C641.542 335.368 642.666 338.435 642.666 342.204C642.666 345.961 641.514 349.052 639.211 351.474C637.767 352.973 635.993 354.008 633.889 354.582C632.842 354.863 631.624 355.004 630.237 355.004C628.859 355.004 627.443 354.705 625.988 354.108C624.534 353.499 623.261 352.634 622.17 351.51ZM630.749 330.791C630.142 330.791 629.575 330.838 629.046 330.932V353.581C629.553 353.676 630.12 353.722 630.749 353.722C633.69 353.722 636.17 352.68 638.186 350.597C640.291 348.431 641.344 345.633 641.344 342.204C641.344 338.938 640.357 336.222 638.385 334.057C636.39 331.88 633.845 330.791 630.749 330.791ZM647.393 329.826H655.823V337.094L661.708 332.371C662.534 331.704 663.135 331.16 663.509 330.738C663.884 330.317 664.116 330.065 664.203 329.983C664.303 329.89 664.391 329.819 664.468 329.773C664.6 329.679 664.765 329.633 664.964 329.633C665.173 329.633 665.338 329.697 665.459 329.826C665.581 329.943 665.641 330.078 665.641 330.229C665.641 330.37 665.625 330.492 665.592 330.598C665.558 330.691 665.493 330.802 665.393 330.932C665.173 331.213 664.754 331.605 664.137 332.108L660.434 335.093L666.633 351.193C666.754 351.498 666.87 351.768 666.98 352.001L667.245 352.634L667.542 353.231C667.619 353.395 667.686 353.552 667.741 353.705C667.796 353.857 667.818 354.003 667.806 354.143C667.796 354.284 667.757 354.413 667.691 354.53C667.537 354.787 667.349 354.916 667.129 354.916C666.82 354.916 666.589 354.822 666.434 354.635C666.237 354.378 666.087 354.09 665.988 353.775L665.691 352.791C665.592 352.463 665.459 352.072 665.294 351.615L659.294 336.006L655.823 338.798V354.67H647.393V329.826ZM685.922 353.16C686.485 353.16 686.765 353.395 686.765 353.862C686.765 354.073 686.645 354.26 686.401 354.424C686.159 354.588 685.74 354.67 685.146 354.67H671.146V329.826C675.487 329.826 679.829 329.826 684.17 329.826L685.526 329.773C686.352 329.773 686.765 330.03 686.765 330.545C686.765 330.744 686.693 330.932 686.551 331.107C686.418 331.271 686.264 331.353 686.087 331.353C685.802 331.353 685.498 331.318 685.179 331.247C684.705 331.142 684.055 331.09 683.228 331.09H679.575V336.445H682.584C682.584 336.445 683.262 336.415 684.617 336.357C684.859 336.357 685.063 336.421 685.228 336.55C685.405 336.667 685.493 336.837 685.493 337.059C685.493 337.551 685.184 337.796 684.567 337.796L683.856 337.78C683.492 337.745 683.19 337.727 682.948 337.727H679.575V353.388H683.228C684.043 353.388 684.622 353.353 684.964 353.283C685.371 353.201 685.692 353.16 685.922 353.16ZM702.336 346.155L703.691 346.26C705.63 346.26 707.278 345.54 708.633 344.1C709.989 342.66 710.667 340.87 710.667 338.727C710.667 335.918 709.504 333.834 707.179 332.477C705.901 331.727 704.534 331.295 703.08 331.178C702.463 331.119 701.89 331.09 701.361 331.09H700.237C700.005 331.09 699.801 331.096 699.625 331.107V354.67H691.196V329.826C693.774 329.826 695.862 329.826 697.459 329.826C699.058 329.826 700.099 329.832 700.584 329.843C701.069 329.855 701.498 329.872 701.873 329.896C702.259 329.908 702.617 329.925 702.947 329.948C703.432 329.996 704.115 330.107 704.998 330.282C705.889 330.457 706.772 330.791 707.642 331.283C708.512 331.774 709.262 332.384 709.889 333.108C711.245 334.655 711.922 336.492 711.922 338.622C711.922 340.729 711.295 342.59 710.038 344.206C708.749 345.856 707.03 346.921 704.881 347.401C705.906 350.772 707.212 352.786 708.798 353.441C709.284 353.64 709.768 353.74 710.253 353.74L711.559 353.406C711.967 353.406 712.171 353.628 712.171 354.073C712.171 354.694 711.488 355.004 710.121 355.004C709.13 355.004 708.22 354.711 707.394 354.126C706.104 353.306 705.008 351.715 704.105 349.35L703.625 348.103C703.548 347.904 703.476 347.782 703.411 347.735C703.355 347.687 703.25 347.665 703.097 347.665C702.953 347.665 702.826 347.676 702.716 347.7L702.319 347.717C701.879 347.717 701.575 347.629 701.41 347.454C701.256 347.278 701.179 347.096 701.179 346.91C701.179 346.406 701.565 346.155 702.336 346.155Z" fill="#245069"/>
</g>
</g>
<defs>
<filter id="filter0_d" x="-40" y="-30" width="1157" height="605" filterUnits="userSpaceOnUse" color-interpolation-filters="sRGB">
<feFlood flood-opacity="0" result="BackgroundImageFix"/>
<feColorMatrix in="SourceAlpha" type="matrix" values="0 0 0 0 0 0 0 0 0 0 0 0 0 0 0 0 0 0 127 0"/>
<feOffset dx="-10"/>
<feGaussianBlur stdDeviation="15"/>
<feColorMatrix type="matrix" values="0 0 0 0 0 0 0 0 0 0 0 0 0 0 0 0 0 0 0.1 0"/>
<feBlend mode="normal" in2="BackgroundImageFix" result="effect1_dropShadow"/>
<feBlend mode="normal" in="SourceGraphic" in2="effect1_dropShadow" result="shape"/>
</filter>
<filter id="filter1_i" x="65.5873" y="33.2062" width="969.768" height="472.464" filterUnits="userSpaceOnUse" color-interpolation-filters="sRGB">
<feFlood flood-opacity="0" result="BackgroundImageFix"/>
<feBlend mode="normal" in="SourceGraphic" in2="BackgroundImageFix" result="shape"/>
<feColorMatrix in="SourceAlpha" type="matrix" values="0 0 0 0 0 0 0 0 0 0 0 0 0 0 0 0 0 0 127 0" result="hardAlpha"/>
<feOffset dx="5" dy="-5"/>
<feGaussianBlur stdDeviation="5"/>
<feComposite in2="hardAlpha" operator="arithmetic" k2="-1" k3="1"/>
<feColorMatrix type="matrix" values="0 0 0 0 0 0 0 0 0 0 0 0 0 0 0 0 0 0 0.3 0"/>
<feBlend mode="normal" in2="shape" result="effect1_innerShadow"/>
</filter>
<linearGradient id="paint0_linear" x1="940.677" y1="144.425" x2="276.338" y2="386.402" gradientUnits="userSpaceOnUse">
<stop stop-color="#245069"/>
<stop offset="1" stop-color="#6297B5"/>
</linearGradient>
<linearGradient id="paint1_linear" x1="-63.8258" y1="530.579" x2="1206.88" y2="10.5508" gradientUnits="userSpaceOnUse">
<stop stop-color="#B59162"/>
<stop offset="1" stop-color="#5B2D1D"/>
</linearGradient>
<linearGradient id="paint2_linear" x1="28.0333" y1="505.67" x2="1063.74" y2="48.6629" gradientUnits="userSpaceOnUse">
<stop stop-color="#DCC291"/>
<stop offset="1" stop-color="#B59162"/>
</linearGradient>
<clipPath id="clip0">
<rect width="1097" height="545" fill="white"/>
</clipPath>
</defs>
</svg>
