<svg width="40" height="40" viewBox="0 0 40 40" fill="none" xmlns="http://www.w3.org/2000/svg">
<path d="M35.8095 0.571426H3.55556C1.5873 0.571426 0 2.15873 0 4.12698V36.3809C0 38.3492 1.5873 39.9365 3.55556 39.9365H35.8095C37.7778 39.9365 39.3651 38.3492 39.3651 36.3809V4.19047C39.4286 2.22222 37.7778 0.571426 35.8095 0.571426ZM7.11111 9.5873C7.11111 9.07936 7.49206 8.69841 8 8.69841H16.9524C17.4603 8.69841 17.8413 9.07936 17.8413 9.5873V18.5397C17.8413 19.0476 17.4603 19.4286 16.9524 19.4286H8C7.49206 19.4286 7.11111 19.0476 7.11111 18.5397V9.5873V9.5873ZM28.6349 32.8889C28.6349 33.3968 28.254 33.7778 27.746 33.7778H8C7.49206 33.7778 7.11111 33.3968 7.11111 32.8889V31.1111C7.11111 30.6032 7.49206 30.2222 8 30.2222H27.746C28.254 30.2222 28.6349 30.6032 28.6349 31.1111V32.8889V32.8889ZM32.254 25.7143C32.254 26.2222 31.873 26.6032 31.3651 26.6032H8C7.49206 26.6032 7.11111 26.2222 7.11111 25.7143V23.9365C7.11111 23.4286 7.49206 23.0476 8 23.0476H31.3016C31.8095 23.0476 32.1905 23.4286 32.1905 23.9365V25.7143H32.254ZM32.254 18.5397C32.254 19.0476 31.873 19.4286 31.3651 19.4286H22.3492C21.8413 19.4286 21.4603 19.0476 21.4603 18.5397V16.7619C21.4603 16.254 21.8413 15.873 22.3492 15.873H31.3016C31.8095 15.873 32.1905 16.254 32.1905 16.7619V18.5397H32.254ZM32.254 11.3651C32.254 11.873 31.873 12.254 31.3651 12.254H22.3492C21.8413 12.254 21.4603 11.873 21.4603 11.3651V9.5873C21.4603 9.07936 21.8413 8.69841 22.3492 8.69841H31.3016C31.8095 8.69841 32.1905 9.07936 32.1905 9.5873V11.3651H32.254Z" fill="#245069"/>
</svg>
