<svg width="44" height="40" viewBox="0 0 44 40" fill="none" xmlns="http://www.w3.org/2000/svg">
<path d="M10.8909 13.3206C10.8987 13.4241 10.9074 13.5272 10.9165 13.6303C11.61 21.4698 16.1962 27.5265 21.7521 27.5265C27.3799 27.5265 32.0135 21.3119 32.613 13.3245C32.6961 12.7511 32.7396 12.1634 32.7396 11.5652C32.7396 10.967 32.6961 10.3797 32.613 9.80586C31.8077 4.25385 27.2515 0 21.7521 0C16.2506 0 11.694 4.25646 10.8909 9.81065C10.8082 10.3827 10.7651 10.9692 10.7651 11.5656C10.7651 11.8084 10.7743 12.0481 10.7878 12.2869C10.8082 12.6354 10.8413 12.9804 10.8909 13.3206ZM14.975 7.08467C14.975 7.08467 22.5678 10.7773 27.6735 7.08467C27.6735 7.08467 30.7036 11.8793 29.8531 13.7639L31.3953 11.9924C31.3883 12.4627 31.3527 12.926 31.287 13.3789C30.761 20.3905 26.6929 25.8468 21.7521 25.8468C16.8914 25.8468 12.8755 20.5662 12.2452 13.7182C12.6728 13.8257 13.1975 14.0332 13.7687 14.4321C13.7687 14.4317 12.6837 7.98869 14.975 7.08467Z" fill="#245069"/>
<path d="M30.4678 25.7028C30.4265 27.5761 25.7763 33.8811 23.1356 37.3154L22.7314 31.531C23.7403 31.0098 24.5221 29.9248 24.5221 28.8211C24.5221 28.8211 23.0207 29.4846 21.4911 29.4846C19.9611 29.4846 18.4602 28.8211 18.4602 28.8211C18.4602 29.9244 19.2419 31.0094 20.2512 31.531L19.8362 37.4676C17.4483 34.0708 13.0787 27.6043 13.0369 25.7032C5.72647 26.3705 0 32.516 0 40H43.5043C43.5043 32.516 37.7778 26.3705 30.4678 25.7028Z" fill="#245069"/>
</svg>
